<svg width="17" height="15" viewBox="0 0 17 15" fill="none" xmlns="http://www.w3.org/2000/svg"><path d="M1.41669 1.125H5.66669C6.41813 1.125 7.1388 1.42351 7.67016 1.95486C8.20151 2.48622 8.50002 3.20689 8.50002 3.95833V13.875C8.50002 13.3114 8.27614 12.7709 7.87762 12.3724C7.47911 11.9739 6.93861 11.75 6.37502 11.75H1.41669V1.125Z" stroke="white" stroke-linecap="round"/><path d="M15.5833 1.125H11.3333C10.5819 1.125 9.86122 1.42351 9.32986 1.95486C8.79851 2.48622 8.5 3.20689 8.5 3.95833V13.875C8.5 13.3114 8.72388 12.7709 9.1224 12.3724C9.52091 11.9739 10.0614 11.75 10.625 11.75H15.5833V1.125Z" stroke="white" stroke-linecap="round"/></svg>