<svg xmlns="http://www.w3.org/2000/svg" width="14" height="14" fill="none" viewBox="0 0 14 14" class=""><g clip-path="url(#heartClip0)"><path stroke="#fff" stroke-linecap="round" stroke-linejoin="round" stroke-width="1.5" d="M11.85 2.7a3.08 3.08 0 00-.998-.651 3.14 3.14 0 00-2.354 0 3.08 3.08 0 00-.998.65l-.592.579-.593-.579a3.115 3.115 0 00-2.174-.878c-.816 0-1.598.316-2.175.878a2.964 2.964 0 00-.9 2.122c0 .796.323 1.56.9 2.122l.593.578 4.349 4.244 4.349-4.244.593-.578c.285-.278.512-.61.666-.973a2.935 2.935 0 000-2.297 2.997 2.997 0 00-.666-.974v0z"/></g><defs><clipPath id="heartClip0"><path fill="#fff" d="M0 0H13.416V13.091H0z" transform="translate(.2 .184)"/></clipPath></defs></svg>