<svg xmlns="http://www.w3.org/2000/svg" width="18" height="16" fill="none" viewBox="0 0 18 16"><g stroke="#7C7E88" stroke-linecap="round" stroke-linejoin="round" stroke-width="1.054" clip-path="url(#locationClip0)"><path d="M8.544 6.5c1.152 0 2.085-.896 2.085-2 0-1.105-.933-2-2.085-2-1.15 0-2.084.895-2.084 2 0 1.104.933 2 2.084 2z"/><path d="M8.544.5a4.26 4.26 0 012.948 1.171A3.92 3.92 0 0112.713 4.5c0 1.781-2.71 5.24-3.76 6.514a.518.518 0 01-.409.19.54.54 0 01-.409-.19C7.085 9.74 4.375 6.28 4.375 4.5c0-1.061.44-2.078 1.222-2.829A4.26 4.26 0 018.544.5v0zM3.855 9.332c-1.285.545-2.084 1.314-2.084 2.165 0 1.656 3.032 3 6.774 3h.521M13.24 9.336c1.282.545 2.079 1.313 2.079 2.162 0 1.157-1.48 2.162-3.648 2.662"/><path d="M8.023 15.5l1.043-1-1.043-1"/></g><defs><clipPath id="locationClip0"><path fill="#fff" d="M0 0H16.676V16H0z" transform="translate(.379)"/></clipPath></defs></svg>