<svg xmlns="http://www.w3.org/2000/svg" width="18" height="16" fill="none" viewBox="0 0 18 16"><g stroke="#7C7E88" stroke-linecap="round" stroke-linejoin="round" stroke-width="1.054" clip-path="url(#guageClip0)"><path d="M8.72 3a8.164 8.164 0 00-3.01.597 7.9 7.9 0 00-2.543 1.657A7.538 7.538 0 001.479 7.72a7.29 7.29 0 00-.576 2.896V12c0 .265.11.52.305.707.195.188.46.293.737.293h13.55c.276 0 .54-.105.736-.293a.98.98 0 00.305-.707v-1.387c.016-2.004-.799-3.932-2.265-5.36C12.805 3.826 10.808 3.015 8.72 3z"/><path d="M6.633 13v-.5c0-.53.22-1.04.61-1.414a2.13 2.13 0 011.474-.586c.553 0 1.083.21 1.474.586.391.375.61.883.61 1.414v.5M10.283 6l-1.564 4.5M3.769 10a.27.27 0 00-.145.042.253.253 0 00-.096.112.24.24 0 00.056.273.265.265 0 00.284.054.26.26 0 00.117-.092.243.243 0 00-.032-.316.266.266 0 00-.184-.073zM4.808 7.5a.269.269 0 00-.145.042.253.253 0 00-.096.112.24.24 0 00.056.273.271.271 0 00.284.054.259.259 0 00.117-.092.243.243 0 00-.032-.316.266.266 0 00-.184-.073zM13.667 10a.27.27 0 00-.145.042.252.252 0 00-.096.112.24.24 0 00.057.273.265.265 0 00.284.054.26.26 0 00.117-.092.243.243 0 00-.033-.316.266.266 0 00-.184-.073zM12.624 7.5a.269.269 0 00-.145.042.253.253 0 00-.096.112.24.24 0 00.057.273.271.271 0 00.284.054.258.258 0 00.117-.092.242.242 0 00-.033-.316.266.266 0 00-.184-.073zM6.894 5.5a.269.269 0 00-.145.042.253.253 0 00-.096.112.24.24 0 00.056.273.271.271 0 00.284.054.259.259 0 00.117-.092.243.243 0 00-.032-.316.266.266 0 00-.184-.073z"/></g><defs><clipPath id="guageClip0"><path fill="#fff" d="M0 0H16.676V16H0z" transform="translate(.379)"/></clipPath></defs></svg>