<svg xmlns="http://www.w3.org/2000/svg" width="18" height="16" fill="none" viewBox="0 0 18 16"><path stroke="#fff" stroke-linecap="round" stroke-linejoin="round" stroke-width="1.5" d="M3.857 1.493h-.008A3 3 0 001.5 4.423v.594a1 1 0 001 1H5a1 1 0 001-1v0a1 1 0 011-1h4a1 1 0 011 1 1 1 0 001 1h2.5a1 1 0 001-1v-.594a3 3 0 00-2.35-2.928h-.007a27.062 27.062 0 00-10.286-.002v0zM3.5 8.017v4a3 3 0 003 3h5a3 3 0 003-3v-4"/><path stroke="#fff" stroke-linecap="round" stroke-linejoin="round" d="M6.25 9.017a.25.25 0 100 .5.25.25 0 000-.5M9 9.017a.25.25 0 100 .5.25.25 0 000-.5M11.75 9.017a.25.25 0 100 .5.25.25 0 000-.5M6.25 11.517a.25.25 0 100 .5.25.25 0 000-.5M9 11.517a.25.25 0 100 .5.25.25 0 000-.5zM11.75 11.517a.25.25 0 00-.049.495.25.25 0 00.299-.245.25.25 0 00-.25-.25z"/></svg>